<svg width="26" height="25" viewBox="0 0 26 25" fill="none" xmlns="http://www.w3.org/2000/svg">
<path d="M13.5017 24.63C8.49493 25.2844 4.30557 25.2979 4.677 19.9197C4.86758 17.1521 7.8136 15.4623 9.22287 13.9275C10.9119 12.085 11.2292 10.661 13.6277 10.5398C15.967 10.4194 17.4543 13.3371 19.0993 15.4251C20.8455 17.6396 22.6734 18.7147 22.0154 21.9062C21.431 24.7454 19.3762 25.5677 13.5017 24.63Z" fill="#0D96A0"/>
<path d="M9.63305 0.148663C12.7799 0.515835 14.5224 10.6128 8.72782 9.0657C4.41756 7.91177 6.40032 -0.135898 9.63305 0.148663Z" fill="#0D96A0"/>
<path d="M3.68594 7.08345C6.84603 7.26538 9.05339 17.2369 3.19419 16.0405C-1.16551 15.1447 0.361102 6.64855 3.68594 7.08345Z" fill="#0D96A0"/>
<path d="M16.2044 0.133498C13.1485 1.09088 12.7989 11.3838 18.3057 8.7635C22.4064 6.81262 19.2281 -1.11966 16.2044 0.133498Z" fill="#0D96A0"/>
<path d="M23.5202 7.39305C20.3684 7.08283 17.0054 15.4536 22.8299 16.3319C27.2173 16.9921 26.665 7.44834 23.5202 7.39305Z" fill="#0D96A0"/>
</svg>
